<svg width="24" height="24" viewBox="0 0 24 24" fill="none" xmlns="http://www.w3.org/2000/svg">
<path d="M1.99988 10.6096C1.99988 9.98541 2.29129 9.39702 2.78779 9.01873L10.7878 2.9235C11.5038 2.37798 12.496 2.37798 13.212 2.92349L21.212 9.01873C21.7085 9.39702 21.9999 9.98541 21.9999 10.6096V20C21.9999 21.1046 21.1044 22 19.9999 22H3.99988C2.89531 22 1.99988 21.1046 1.99988 20V10.6096Z" fill="#262626"/>
<path d="M10.9902 20.959L10.9902 21.959L12.9902 21.959L12.9902 20.959L11.9902 20.959L10.9902 20.959ZM12.9902 17.9994C12.9902 17.4471 12.5425 16.9994 11.9902 16.9994C11.4379 16.9994 10.9902 17.4471 10.9902 17.9994L11.9902 17.9994L12.9902 17.9994ZM11.9902 17.9994L10.9902 17.9994L10.9902 19.4792L11.9902 19.4792L12.9902 19.4792L12.9902 17.9994L11.9902 17.9994ZM11.9902 19.4792L10.9902 19.4792L10.9902 20.959L11.9902 20.959L12.9902 20.959L12.9902 19.4792L11.9902 19.4792Z" fill="white"/>
</svg>
