<svg width="52" height="28" viewBox="0 0 52 28" fill="none" xmlns="http://www.w3.org/2000/svg">
<rect width="52" height="28" rx="14" fill="#BFBFBF"/>
<rect x="2" y="2" width="30" height="24" rx="12" fill="white"/>
<path d="M13.9844 13.7578C13.9844 16.5234 12.2617 18.1172 10.0234 18.1172C7.76172 18.1172 6.05078 16.5117 6.05078 13.7578C6.05078 10.9922 7.76172 9.39844 10.0234 9.39844C12.2617 9.39844 13.9844 10.9922 13.9844 13.7578ZM12.1914 13.7578C12.1914 11.9414 11.3359 10.957 10.0234 10.957C8.71094 10.957 7.84375 11.9414 7.84375 13.7578C7.84375 15.5742 8.71094 16.5586 10.0234 16.5586C11.3359 16.5586 12.1914 15.5742 12.1914 13.7578ZM15.25 18V9.51562H20.8398V10.9688H17.0078V13.0312H20.4766V14.4844H17.0078V18H15.25ZM22 18V9.51562H27.5898V10.9688H23.7578V13.0312H27.2266V14.4844H23.7578V18H22Z" fill="#666666"/>
</svg>
