<svg width="21" height="22" viewBox="0 0 21 22" fill="none" xmlns="http://www.w3.org/2000/svg">
<path d="M19.4897 5.81194L19.003 4.96729C18.635 4.3285 18.4509 4.00911 18.1378 3.88174C17.8246 3.75438 17.4705 3.85488 16.7622 4.05588L15.559 4.39478C15.1068 4.49906 14.6323 4.43991 14.2194 4.22776L13.8872 4.03609C13.5332 3.80932 13.2608 3.47495 13.1101 3.08192L12.7808 2.09846C12.5643 1.44765 12.456 1.12225 12.1983 0.936123C11.9406 0.75 11.5982 0.75 10.9136 0.75H9.81434C9.12967 0.75 8.78734 0.75 8.52961 0.936123C8.27189 1.12225 8.16363 1.44765 7.94712 2.09846L7.61783 3.08192C7.46708 3.47495 7.19474 3.80932 6.84066 4.03609L6.50848 4.22776C6.09558 4.43991 5.62114 4.49906 5.16894 4.39478L3.96573 4.05588C3.25742 3.85488 2.90327 3.75438 2.59013 3.88174C2.27698 4.00911 2.09294 4.3285 1.72486 4.96729L1.23816 5.81194C0.89313 6.41071 0.720619 6.7101 0.754099 7.02881C0.787582 7.34751 1.01853 7.60435 1.48042 8.11802L2.49707 9.25464C2.74555 9.56921 2.92197 10.1174 2.92197 10.6103C2.92197 11.1035 2.74561 11.6515 2.4971 11.9661L1.48043 13.1028C1.01853 13.6164 0.787584 13.8733 0.754101 14.192C0.720619 14.5107 0.893136 14.8101 1.23816 15.4089L1.72484 16.2535L1.72485 16.2535C2.09292 16.8923 2.27698 17.2117 2.59013 17.339C2.90328 17.4664 3.25743 17.3659 3.96575 17.1649L5.1689 16.826C5.62118 16.7217 6.0957 16.7809 6.50866 16.9931L6.84079 17.1848C7.19479 17.4115 7.46707 17.7459 7.61779 18.1388L7.94712 19.1224C8.16363 19.7732 8.27189 20.0986 8.52961 20.2847C8.78734 20.4709 9.12967 20.4709 9.81434 20.4709H10.9136C11.5982 20.4709 11.9406 20.4709 12.1983 20.2847C12.456 20.0986 12.5643 19.7732 12.7808 19.1224L13.1101 18.1388C13.2608 17.7459 13.5331 17.4115 13.8871 17.1848L14.2192 16.9931C14.6322 16.7809 15.1067 16.7217 15.559 16.826L16.7622 17.1649C17.4705 17.3659 17.8246 17.4664 18.1378 17.339C18.4509 17.2117 18.635 16.8923 19.0031 16.2535L19.0031 16.2535L19.4897 15.4089C19.8348 14.8101 20.0073 14.5107 19.9738 14.192C19.9403 13.8733 19.7094 13.6164 19.2475 13.1028L18.2308 11.9661C17.9823 11.6515 17.8059 11.1035 17.8059 10.6103C17.8059 10.1174 17.9823 9.56921 18.2308 9.25464L19.2475 8.11802C19.7094 7.60435 19.9403 7.34751 19.9738 7.02881C20.0073 6.7101 19.8348 6.41071 19.4897 5.81194Z" stroke="#1F1F1F" stroke-width="1.5" stroke-linecap="round"/>
<path d="M13.7728 10.6035C13.7728 12.5095 12.2277 14.0547 10.3216 14.0547C8.41562 14.0547 6.87048 12.5095 6.87048 10.6035C6.87048 8.69748 8.41562 7.15234 10.3216 7.15234C12.2277 7.15234 13.7728 8.69748 13.7728 10.6035Z" stroke="#1F1F1F" stroke-width="1.5"/>
</svg>
