<svg width="12" height="12" viewBox="0 0 12 12" fill="none" xmlns="http://www.w3.org/2000/svg">
<path d="M0.2 8V8.8H1.8V8H1H0.2ZM10.2 8V8.8H11.8V8H11H10.2ZM7.27272 6.85865L7.8384 6.29297L6.70703 5.1616L6.14135 5.72728L6.70703 6.29297L7.27272 6.85865ZM4.72713 7.1415L4.16145 7.70718L5.29282 8.83855L5.8585 8.27287L5.29282 7.70718L4.72713 7.1415ZM1 8H1.8C1.8 5.6804 3.6804 3.8 6 3.8V3V2.2C2.79675 2.2 0.2 4.79675 0.2 8H1ZM6 3V3.8C8.3196 3.8 10.2 5.6804 10.2 8H11H11.8C11.8 4.79675 9.20325 2.2 6 2.2V3ZM6.70703 6.29297L6.14135 5.72728L4.72713 7.1415L5.29282 7.70718L5.8585 8.27287L7.27272 6.85865L6.70703 6.29297Z" fill="#528FFF"/>
</svg>
