<svg width="53" height="28" viewBox="0 0 53 28" fill="none" xmlns="http://www.w3.org/2000/svg">
<rect x="0.988281" width="52" height="28" rx="14" fill="#1F1F1F"/>
<rect x="20.9883" y="2" width="30" height="24" rx="12" fill="white"/>
<path d="M35.4727 13.7578C35.4727 16.5234 33.75 18.1172 31.5117 18.1172C29.25 18.1172 27.5391 16.5117 27.5391 13.7578C27.5391 10.9922 29.25 9.39844 31.5117 9.39844C33.75 9.39844 35.4727 10.9922 35.4727 13.7578ZM33.6797 13.7578C33.6797 11.9414 32.8242 10.957 31.5117 10.957C30.1992 10.957 29.332 11.9414 29.332 13.7578C29.332 15.5742 30.1992 16.5586 31.5117 16.5586C32.8242 16.5586 33.6797 15.5742 33.6797 13.7578ZM43.8164 9.51562V18H42.293L38.5664 12.6094H38.4961V18H36.7383V9.51562H38.2852L41.9883 14.9062H42.0703V9.51562H43.8164Z" fill="#1F1F1F"/>
</svg>
