<svg width="24" height="24" viewBox="0 0 24 24" fill="none" xmlns="http://www.w3.org/2000/svg">
<path d="M19.9723 13.8151C18.9827 14.7964 17.7222 15.4591 16.3528 15.7179C14.9834 15.9767 13.568 15.8197 12.2886 15.2673L7.28789 21.0565C7.27828 21.0757 7.25904 21.0854 7.24943 21.095C6.96441 21.3811 6.62571 21.6081 6.25274 21.763C5.87978 21.9179 5.47991 21.9977 5.07606 21.9977C4.67221 21.9977 4.27233 21.9179 3.89937 21.763C3.52641 21.6081 3.1877 21.3811 2.90269 21.095C2.61657 20.81 2.38955 20.4713 2.23465 20.0983C2.07974 19.7253 2 19.3255 2 18.9216C2 18.5178 2.07974 18.1179 2.23465 17.7449C2.38955 17.372 2.61657 17.0332 2.90269 16.7482L2.94115 16.7098L8.7304 11.7091C8.17277 10.4388 8.00959 9.03028 8.26201 7.66614C8.51443 6.302 9.17081 5.04514 10.1461 4.05849C11.1213 3.07183 12.3705 2.40089 13.7316 2.13264C15.0927 1.86438 16.503 2.01118 17.7797 2.55401C17.8952 2.60251 17.9969 2.67882 18.0757 2.77614C18.1546 2.87345 18.2082 2.98875 18.2317 3.11178C18.2559 3.23569 18.2493 3.36367 18.2124 3.48442C18.1755 3.60517 18.1095 3.71499 18.0201 3.80418L14.2792 7.54507L14.635 9.36262L16.4526 9.71844L20.1935 5.97755C20.2827 5.88817 20.3925 5.82212 20.5132 5.78522C20.634 5.74833 20.762 5.74172 20.8859 5.76598C21.0089 5.7895 21.1242 5.84307 21.2215 5.92193C21.3188 6.00079 21.3951 6.10248 21.4436 6.21796C21.9865 7.48617 22.1365 8.88807 21.8742 10.2424C21.6119 11.5968 20.9494 12.8413 19.9723 13.8151Z" fill="#262626"/>
</svg>
