<svg width="31" height="31" viewBox="0 0 31 31" fill="none" xmlns="http://www.w3.org/2000/svg">
<path d="M23 0C27.4183 0 31 3.58172 31 8V23C31 27.4183 27.4183 31 23 31H8L7.58789 30.9893C3.36114 30.7748 0 27.2801 0 23V8C0 3.71994 3.36114 0.22523 7.58789 0.0107422L8 0H23ZM8 2C4.68629 2 2 4.68629 2 8V23C2 26.3137 4.68629 29 8 29H23C26.3137 29 29 26.3137 29 23V8C29 4.78979 26.4789 2.16843 23.3086 2.00781L23 2H8ZM14 19.5V23.5L12.5 25H8.5L7 23.5V19.5L8.5 18H12.5L14 19.5ZM9 23H12V20H9V23ZM14 9.5V13.5L12.5 15H8.5L7 13.5V9.5L8.5 8H12.5L14 9.5ZM24 9.5V13.5L22.5 15H18.5L17 13.5V9.5L18.5 8H22.5L24 9.5ZM9 13H12V10H9V13ZM19 10V13H22V10H19Z" fill="white"/>
<path d="M19.4004 20.4004H22C23.5 20.4004 23.7988 21.5 23.7988 22.5V25H21.3535V22.6006H19.4004V25H17V22.5996H19.3984V20.4004H17V18H19.4004V20.4004Z" fill="white"/>
</svg>
